<?xml version="1.0" encoding="utf-8"?>
<!-- Generator: Adobe Illustrator 27.2.0, SVG Export Plug-In . SVG Version: 6.00 Build 0)  -->
<svg version="1.1" id="Layer_1" xmlns="http://www.w3.org/2000/svg" xmlns:xlink="http://www.w3.org/1999/xlink" x="0px" y="0px"
	 viewBox="0 0 1607.92 545.8" style="enable-background:new 0 0 1607.92 545.8;" xml:space="preserve">
<style type="text/css">
	.st0{fill:#FFFFFF;}
	.st1{fill:#8C1D68;}
	.st2{fill:#560F5D;}
	.st3{fill:#480C62;}
	.st4{fill:#BA2B71;}
	.st5{fill:#8C1F69;}
</style>
<g>
	<path class="st0" d="M203.32,484.95c0.19-0.42,0.38-0.83,0.57-1.25c6.05-13.61,12.06-27.24,18.16-40.82
		c3.15-7,6.65-13.86,8.83-21.26c5.83-10.59,10.01-21.92,14.89-32.94c3.22-7.28,7.04-14.3,9.32-21.98
		c7.33-14.71,13.58-29.9,19.93-45.04c4.43-9.14,8.54-18.41,12.09-27.93c0.08-0.23,0.16-0.46,0.24-0.69c-0.31-0.1-0.61-0.3-0.92-0.3
		c-13.43,0.06-26.87,0.14-40.3,0.21c-0.25,0.18-0.62,0.3-0.73,0.54c-6.77,15.26-13.68,30.46-20.14,45.85
		c-1.42,3.39-4.4,6.25-4.13,10.32c-2.82,4.76-4.89,9.85-6.77,15.03c-1.03,2.01-2.05,4.02-3.08,6.03
		c-3.34,7.84-6.61,15.71-10.04,23.51c-3.14,7.14-6.77,14.08-9.16,21.54c-0.86,1.34-2.05,2.58-2.53,4.04
		c-3.29,10.18-8.4,19.58-12.53,29.4c-7.55,17.97-15.76,35.66-23.69,53.47c-0.4,2.17,1.13,1.98,2.45,1.98
		c12.16,0.01,24.32-0.03,36.48,0.04c1.92,0.01,3.13-0.53,3.79-2.4c2.08-5.93,5.81-11.18,7.29-17.37L203.32,484.95z M90.09,335.67
		c-5.46,10.33-10.06,21.04-14.16,31.97c-2.89,2.82-3.94,6.84-5.37,10.25c-5.68,13.55-11.51,27.04-17.58,40.41
		c-5.79,12.77-11.65,25.53-17.37,38.32c-6.62,14.81-12.89,29.79-19.93,44.42c-1.16,2.41-0.78,3.73,2.26,3.66
		c4.49-0.1,8.99-0.14,13.48,0.02c2.3,0.08,3.06-1.11,3.91-2.94c8.62-18.48,16.43-37.31,25.16-55.76
		c4.92-10.41,9.28-21.23,13.72-31.95c4.79-11.54,9.9-22.95,14.87-34.42c6.42-13.09,12.17-26.48,17.79-39.92
		c7.71-15.23,14.03-31.04,21.11-47.08c-5.78,0-10.61,0.2-15.4-0.07c-2.96-0.17-4.26,0.94-5.39,3.6
		c-4.21,9.95-8.79,19.74-13.03,29.67C92.76,329.1,90.3,331.93,90.09,335.67z M270.27,426.69c-4.55,8.83-8.5,17.93-12.11,27.17
		c-1.29,3.3-4.24,5.92-4.01,9.83c-6.81,12.18-10.93,25.59-17.45,37.91c-1.41,2.67,0.13,3.12,2.37,3.09
		c5.65-0.07,11.29-0.1,16.94-0.14c10.31,0.04,20.62-0.05,30.93,0.22c3.18,0.08,4.68-1.04,5.88-3.87
		c4.67-11.01,9.63-21.9,14.38-32.88c2.78-6.42,5.37-12.92,8.04-19.38c2.2-3.01,2.98-6.67,4.56-9.96c0.33-2.15,3.39-3.25,2.3-5.95
		c1.13-0.7,1.15-2.01,1.67-3.04c0.94-2.08,1.9-4.16,2.8-6.25c7.17-16.56,14.33-33.13,21.49-49.7c0.3-0.37,0.71-0.7,0.89-1.12
		c8.41-19.19,16.8-38.38,25.2-57.57c3.21-7.33,6.43-14.64,9.83-22.36c-17.07,0-33.54,0.21-50-0.14c-4.45-0.1-6.35,1.73-7.86,5.29
		c-5.41,12.77-10.89,25.5-16.38,38.24c-4.84,11.23-9.73,22.43-14.59,33.65c-4,8.77-8.35,17.4-11.82,26.38
		c-1.37,3.54-4.56,6.41-4.19,10.61C275.41,413.03,272.54,419.73,270.27,426.69z M177.03,292.83c-10.55-0.15-7.12-1.81-11.57,7.27
		c-2.28,4.66-4.25,9.48-6.32,14.25c-5.02,11.54-10.02,23.09-15.03,34.64c-0.64,0.72-1.58,1.34-1.87,2.18
		c-4.02,11.76-9.83,22.73-14.91,34.03c-3.02,6.72-5.57,13.66-8.34,20.5c-2.22,2.72-3,6.15-4.4,9.25
		c-8.17,18.05-16.16,36.19-24.29,54.26c-4.78,10.63-9.67,21.21-14.61,31.77c-1.41,3.01-0.4,3.78,2.58,3.75
		c8.99-0.09,17.99-0.28,26.97,0.07c4.88,0.19,8.03-0.62,9.38-6.06c1.01-4.07,3.45-7.78,5.17-11.69
		c10.99-25.14,21.96-50.28,32.94-75.43c1.89-4.31,3.81-8.62,5.67-12.94c5.9-13.64,11.78-27.29,17.66-40.94
		c4.44-8.47,8.24-17.22,11.71-26.13c5.69-12.81,11.39-25.63,17.23-38.77C194.97,292.83,186,292.83,177.03,292.83z M593.74,410
		c9.35-21.13,18.7-42.25,28.05-63.38c8.88-17.43,15.65-35.77,24.11-53.92c-12.1,0-23.55-0.03-34.99,0.01
		c-25.59,0.07-51.17,0.17-76.76,0.26c-3.41,4.01-4.63,9.16-6.84,13.76c-4.76,9.93-8.72,20.25-13.07,30.39
		c-2.79,6.5-6.32,12.69-8.2,19.57c-3.47,5.63-5.9,11.72-7.86,18.01c-2.86,3.58-3.57,8.21-5.93,12.04c-2.05,4.99-4.1,9.99-6.16,14.98
		c-1.4,0.33-1.52,1.76-1.78,2.66c-2.2,7.66-6.19,14.56-9.23,21.86c-4.95,11.87-10.86,23.34-15.82,35.2
		c-5.47,13.08-10.82,26.19-17.1,38.9c-1.3,2.62-1.93,4.43,2.42,4.42c34.78-0.12,69.57-0.08,104.35-0.05c1.75,0,3.19-0.08,4-2.04
		c2.17-5.27,5.03-10.27,6.22-15.93c1.57-0.68,1.81-2.3,2.4-3.61c7.98-17.75,15.95-35.51,23.83-53.31
		C588.28,423.26,590.96,416.61,593.74,410z M389.08,374.8c-7.14,14.29-13.43,28.95-19.2,43.83c-0.52,0.37-1.38,0.64-1.52,1.12
		c-3.33,11.07-9.11,21.09-13.46,31.72c-3.85,9.4-7.96,18.7-12.04,28c-3.07,6.99-6.2,13.94-9.49,20.83
		c-0.56,1.18-1.75,2.15-1.09,3.54c0.75,1.58,2.34,0.83,3.54,0.83c20.14,0.03,40.28-0.04,60.42,0.07c2.71,0.01,4.23-0.66,5.24-3.28
		c1.84-4.75,4.02-9.37,6.07-14.03c8.5-19.4,17.01-38.79,25.51-58.2c5.92-13.51,11.81-27.04,17.71-40.56
		c1.31-2.99,2.63-5.98,3.94-8.97c12.7-28.86,25.39-57.71,38.28-87.02c-22.45,0-44.09,0.03-65.72-0.05
		c-2.01-0.01-2.88,0.75-3.62,2.47c-2.78,6.49-5.71,12.91-8.54,19.38c-5.63,12.87-11.19,25.76-16.84,38.61
		C395.1,360.29,391.41,367.26,389.08,374.8z"/>
	<path class="st1" d="M450.76,388.68c-5.9,13.52-11.79,27.04-17.71,40.56c-8.49,19.4-17.01,38.8-25.51,58.2
		c-2.05,4.67-4.23,9.28-6.07,14.03c-1.01,2.62-2.53,3.29-5.24,3.28c-20.14-0.11-40.28-0.03-60.42-0.07c-1.21,0-2.79,0.75-3.54-0.83
		c-0.66-1.4,0.52-2.36,1.09-3.54c3.28-6.89,6.42-13.84,9.49-20.83c4.08-9.3,8.19-18.6,12.04-28c4.35-10.63,10.13-20.65,13.46-31.72
		c0.15-0.48,1-0.75,1.52-1.12c1.59-0.44,3.22-0.75,4.75-1.33C400.02,407.78,425.38,398.23,450.76,388.68z"/>
	<path class="st2" d="M559.15,486.73c-1.2,5.65-4.06,10.65-6.22,15.93c-0.81,1.96-2.25,2.04-4,2.04
		c-34.78-0.03-69.57-0.07-104.35,0.05c-4.35,0.02-3.71-1.79-2.42-4.42c6.29-12.71,11.63-25.83,17.1-38.9
		c4.96-11.86,10.87-23.33,15.82-35.2c3.04-7.3,7.03-14.2,9.23-21.86c0.26-0.9,0.38-2.33,1.78-2.66c1.45,1.34,3.07,2.54,4.34,4.05
		c6.15,7.33,12.19,14.76,18.3,22.12c12.97,15.62,25.87,31.29,38.98,46.79C551.28,478.89,554.19,483.81,559.15,486.73z"/>
	<path class="st2" d="M389.08,374.8c2.33-7.54,6.02-14.51,9.18-21.7c5.65-12.86,11.21-25.75,16.84-38.61
		c2.83-6.47,5.76-12.89,8.54-19.38c0.74-1.72,1.6-2.48,3.62-2.47c21.64,0.08,43.28,0.05,65.72,0.05
		c-12.89,29.31-25.59,58.16-38.28,87.02c-6.15,0.24-12.23-0.49-18.35-0.94c-12.38-0.91-24.81-1.13-37.16-2.3
		C395.88,376.16,392.22,376.62,389.08,374.8z"/>
	<path class="st1" d="M534.14,292.96c25.59-0.09,51.17-0.19,76.76-0.26c11.45-0.03,22.89-0.01,34.99-0.01
		c-8.46,18.15-15.23,36.49-24.11,53.92c-1.32,0.09-2.69,0.01-3.96,0.3c-20.75,4.79-41.49,9.63-62.23,14.44
		c-19.14,4.45-38.28,8.88-57.41,13.32c1.96-6.29,4.39-12.38,7.86-18.01c1.71-1.02,3.47-1.96,5.12-3.07
		c20.21-13.68,40.39-27.4,60.6-41.07c8.87-6,17.8-11.89,27.01-18.04c-2.1-1.3-3.77-0.79-5.34-0.79
		c-17.99-0.05-35.98-0.01-53.97-0.06C537.68,293.65,535.77,294.24,534.14,292.96z"/>
	<path class="st3" d="M559.15,486.73c-4.96-2.92-7.87-7.84-11.43-12.06c-13.11-15.5-26.02-31.17-38.98-46.79
		c-6.11-7.36-12.15-14.79-18.3-22.12c-1.26-1.5-2.88-2.71-4.34-4.05c2.05-4.99,4.1-9.99,6.16-14.98
		c16.59,3.83,33.16,7.68,49.76,11.47c17.24,3.93,34.3,8.7,51.73,11.8c-2.78,6.61-5.45,13.26-8.35,19.81
		c-7.88,17.8-15.86,35.55-23.83,53.31C560.96,484.43,560.72,486.05,559.15,486.73z"/>
	<path class="st2" d="M295.14,369.72c4.87-11.22,9.75-22.42,14.59-33.65c5.49-12.73,10.97-25.47,16.38-38.24
		c1.51-3.56,3.42-5.39,7.86-5.29c16.46,0.36,32.93,0.14,50,0.14c-3.39,7.72-6.62,15.04-9.83,22.36
		c-8.4,19.19-16.79,38.39-25.2,57.57c-0.19,0.42-0.59,0.75-0.89,1.12c-3.18-2.13-6.74-0.68-10.1-1.05
		C323.73,371.07,309.43,370.47,295.14,369.72z"/>
	<path class="st4" d="M593.74,410c-17.43-3.1-34.49-7.87-51.73-11.8c-16.59-3.78-33.17-7.64-49.76-11.47
		c2.36-3.82,3.07-8.46,5.93-12.04c19.14-4.44,38.28-8.88,57.41-13.32c20.74-4.82,41.48-9.66,62.23-14.44
		c1.28-0.29,2.64-0.21,3.96-0.3C612.44,367.75,603.09,388.88,593.74,410z"/>
	<path class="st5" d="M152.72,411.61c-10.98,25.14-21.94,50.29-32.94,75.43c-1.71,3.91-4.16,7.62-5.17,11.69
		c-1.35,5.44-4.49,6.25-9.38,6.06c-8.98-0.35-17.98-0.16-26.97-0.07c-2.99,0.03-3.99-0.73-2.58-3.75
		c4.94-10.56,9.83-21.14,14.61-31.77c8.13-18.07,16.12-36.2,24.29-54.26c1.41-3.11,2.19-6.53,4.4-9.26c0.32,2.06,1.91,1.82,3.4,2
		C132.51,408.96,142.61,410.29,152.72,411.61z"/>
	<path class="st5" d="M230.88,421.62c-2.18,7.41-5.68,14.26-8.83,21.26c-6.1,13.59-12.11,27.21-18.16,40.82
		c-0.19,0.42-0.38,0.83-0.57,1.25c0,0,0.05-0.01,0.05-0.01c-1.76-0.4-3.28,0.49-4.77,1.07c-13.24,5.18-26.44,10.46-39.65,15.7
		c-1.79,0.71-3.49,2.02-5.6,0.98c7.93-17.81,16.14-35.5,23.69-53.47c4.13-9.82,9.23-19.22,12.53-29.4c0.47-1.47,1.67-2.7,2.53-4.04
		c3.2,1.37,6.64,1.47,10.02,1.92C211.7,418.98,221.29,420.31,230.88,421.62z"/>
	<path class="st3" d="M295.14,369.72c14.29,0.76,28.59,1.36,42.82,2.96c3.36,0.38,6.92-1.07,10.1,1.05
		c-7.16,16.57-14.32,33.13-21.49,49.7c-0.91,2.1-1.87,4.17-2.8,6.25c-1.67-0.71-3.41-1.31-5.02-2.15
		c-13.22-6.92-26.42-13.88-39.62-20.83c-0.37-4.2,2.82-7.07,4.19-10.61C286.79,387.12,291.14,378.49,295.14,369.72z"/>
	<path class="st4" d="M89.08,379.66c-4.97,11.47-10.08,22.87-14.87,34.42c-4.44,10.71-8.8,21.54-13.72,31.95
		c-8.72,18.45-16.53,37.28-25.16,55.76c-0.85,1.83-1.61,3.03-3.91,2.94c-4.49-0.16-8.99-0.12-13.48-0.02
		c-3.04,0.07-3.42-1.26-2.26-3.66c7.04-14.63,13.31-29.61,19.93-44.42c5.72-12.79,11.57-25.55,17.37-38.32
		c6.07-13.37,11.9-26.86,17.58-40.41c1.43-3.42,2.48-7.43,5.37-10.25C80.31,371.65,84.69,375.65,89.08,379.66z"/>
	<path class="st4" d="M534.14,292.96c1.63,1.27,3.54,0.69,5.31,0.69c17.99,0.05,35.98,0.01,53.97,0.06c1.57,0,3.24-0.51,5.34,0.79
		c-9.21,6.15-18.14,12.04-27.01,18.04c-20.21,13.67-40.39,27.39-60.6,41.07c-1.65,1.11-3.41,2.05-5.12,3.07
		c1.88-6.88,5.41-13.07,8.2-19.57c4.35-10.13,8.3-20.45,13.07-30.39C529.51,302.13,530.73,296.98,534.14,292.96z"/>
	<path class="st3" d="M152.72,411.61c-10.11-1.31-20.21-2.65-30.32-3.92c-1.49-0.19-3.08,0.06-3.4-2c2.76-6.84,5.31-13.77,8.34-20.5
		c5.08-11.29,10.89-22.26,14.91-34.03c0.29-0.84,1.23-1.46,1.87-2.18c10.65,2.91,21.29,5.83,31.94,8.74
		c-5.89,13.65-11.77,27.3-17.66,40.94C156.52,402.99,154.61,407.29,152.72,411.61z"/>
	<path class="st4" d="M319.8,438.67c-1.58,3.29-2.36,6.95-4.56,9.96c-0.81,0.55-1.71,1-2.42,1.66
		c-7.42,6.87-14.96,13.62-22.16,20.72c-11.44,11.29-23.87,21.56-34.65,33.54c-5.65,0.04-11.29,0.07-16.94,0.14
		c-2.24,0.03-3.78-0.42-2.37-3.09c6.51-12.32,10.64-25.73,17.45-37.91c12.67-3.83,24.58-9.65,37.02-14.08
		C300.8,446.19,309.95,441.52,319.8,438.67z"/>
	<path class="st3" d="M389.08,374.8c3.14,1.82,6.8,1.36,10.1,1.67c12.35,1.16,24.79,1.38,37.16,2.3c6.12,0.45,12.2,1.18,18.35,0.94
		c-1.31,2.99-2.63,5.98-3.94,8.97c-25.37,9.55-50.74,19.11-76.12,28.63c-1.53,0.58-3.17,0.89-4.75,1.33
		C375.65,403.75,381.94,389.09,389.08,374.8z"/>
	<path class="st4" d="M221.14,349.66c-0.27-4.08,2.7-6.93,4.13-10.32c6.45-15.39,13.37-30.59,20.14-45.85
		c0.11-0.24,0.48-0.36,0.73-0.54c1.6,1.31,3.5,0.71,5.26,0.72c11.9,0.06,23.81,0.05,35.72,0.06c-3.55,9.52-7.66,18.79-12.09,27.93
		c-2.55,1.17-5.17,2.23-7.65,3.54C251.94,333.32,236.54,341.5,221.14,349.66z"/>
	<path class="st5" d="M176.05,357.72c-10.65-2.91-21.29-5.83-31.94-8.74c5.01-11.55,10.01-23.1,15.03-34.64
		c2.07-4.76,4.04-9.58,6.32-14.25c4.45-9.07,1.01-7.42,11.57-7.27c3.58,12.92,7.15,25.84,10.73,38.77
		C184.3,340.5,180.49,349.25,176.05,357.72z"/>
	<path class="st2" d="M230.88,421.62c-9.59-1.31-19.18-2.64-28.77-3.92c-3.38-0.45-6.82-0.55-10.02-1.92
		c2.39-7.46,6.02-14.4,9.16-21.54c3.43-7.8,6.7-15.67,10.04-23.51c4.27,2.47,8.45,5.12,12.84,7.36c7.15,3.66,14.12,7.7,21.64,10.6
		C240.88,399.7,236.7,411.04,230.88,421.62z"/>
	<path class="st2" d="M221.14,349.66c15.41-8.16,30.8-16.34,46.23-24.46c2.48-1.31,5.1-2.36,7.65-3.54
		c-6.35,15.14-12.6,30.33-19.93,45.04c-13.57-0.67-27.15-1.34-40.72-2.01C216.25,359.52,218.32,354.42,221.14,349.66z"/>
	<path class="st1" d="M319.8,438.67c-9.85,2.85-19,7.51-28.63,10.94c-12.44,4.43-24.35,10.25-37.02,14.08
		c-0.24-3.9,2.72-6.53,4.01-9.83c3.61-9.24,7.56-18.34,12.11-27.17c2.31,0.07,4.64-0.05,6.92,0.24c14.98,1.88,29.94,3.85,44.91,5.78
		C323.18,435.42,320.13,436.52,319.8,438.67z"/>
	<path class="st3" d="M256.01,504.55c10.78-11.97,23.21-22.24,34.65-33.54c7.19-7.1,14.74-13.84,22.16-20.72
		c0.71-0.66,1.61-1.11,2.42-1.66c-2.67,6.46-5.26,12.96-8.04,19.38c-4.75,10.98-9.7,21.87-14.38,32.88c-1.2,2.83-2.7,3.95-5.88,3.87
		C276.64,504.5,266.32,504.59,256.01,504.55z"/>
	<path class="st5" d="M90.09,335.67c0.21-3.74,2.67-6.56,4.06-9.81c4.24-9.93,8.83-19.72,13.03-29.67c1.13-2.66,2.42-3.77,5.39-3.6
		c4.8,0.27,9.62,0.07,15.4,0.07c-7.08,16.04-13.41,31.86-21.11,47.08C101.27,338.38,95.68,337.02,90.09,335.67z"/>
	<path class="st3" d="M90.09,335.67c5.59,1.36,11.18,2.72,16.77,4.07c-5.62,13.45-11.37,26.83-17.79,39.92
		c-4.38-4.01-8.77-8.01-13.15-12.02C80.04,356.71,84.63,346,90.09,335.67z"/>
	<path class="st3" d="M214.36,364.7c13.57,0.67,27.15,1.34,40.72,2.01c-2.28,7.68-6.1,14.7-9.32,21.98
		c-7.52-2.9-14.49-6.94-21.64-10.6c-4.39-2.24-8.56-4.89-12.84-7.36C212.31,368.72,213.34,366.71,214.36,364.7z"/>
	<path class="st2" d="M322.1,432.72c-14.97-1.94-29.93-3.9-44.91-5.78c-2.28-0.29-4.61-0.17-6.92-0.24
		c2.27-6.97,5.14-13.67,8.87-19.99c13.2,6.95,26.4,13.91,39.62,20.83c1.61,0.84,3.34,1.44,5.02,2.15
		C323.25,430.71,323.23,432.02,322.1,432.72z"/>
	<path class="st2" d="M187.77,331.6c-3.58-12.92-7.15-25.84-10.73-38.77c8.97,0,17.94,0,27.96,0
		C199.15,305.97,193.46,318.78,187.77,331.6z"/>
	<path class="st4" d="M153.35,502.69c2.1,1.04,3.81-0.27,5.6-0.98c13.22-5.23,26.41-10.52,39.65-15.7c1.49-0.58,3.01-1.47,4.77-1.07
		c-1.48,6.19-5.21,11.44-7.29,17.37c-0.66,1.87-1.87,2.41-3.79,2.4c-12.16-0.07-24.32-0.03-36.48-0.04
		C154.48,504.67,152.95,504.86,153.35,502.69z"/>
	<path class="st1" d="M287.11,293.73c-11.91-0.01-23.81,0.01-35.72-0.06c-1.76-0.01-3.66,0.59-5.26-0.72
		c13.43-0.08,26.87-0.15,40.3-0.21c0.3,0,0.61,0.2,0.92,0.3C287.27,293.27,287.19,293.5,287.11,293.73z"/>
	<path class="st4" d="M203.32,484.95c0.19-0.42,0.38-0.83,0.57-1.25C203.7,484.12,203.51,484.54,203.32,484.95z"/>
</g>
<g>
	<path class="st0" d="M1321.7,82.16c0,53.76,0,106.8,0,160.12c-18.56,0-36.65,0-55.24,0c0-53.17,0-106.22,0-159.86
		c-2.22-0.1-3.97-0.24-5.72-0.24c-53.13-0.01-106.26,0.04-159.39-0.11c-4.01-0.01-5.76,1.33-7.32,4.91
		c-21.57,49.51-43.35,98.93-64.94,148.43c-1.72,3.95-3.6,5.75-8.35,5.67c-26.47-0.44-52.99,0.42-79.43-0.74
		c-49.02-2.15-91.65-42.75-97.35-91.45c-6.82-58.22,29.57-108.1,87.11-119.08c6.01-1.15,12.24-1.47,18.37-1.52
		c22.64-0.17,45.28-0.07,68.59-0.07c-0.64,1.76-1.02,3.09-1.59,4.35c-6.86,15.14-13.82,30.23-20.55,45.42
		c-1.42,3.21-3.25,4.32-6.76,4.26c-13.15-0.21-26.32-0.16-39.47-0.06c-29.28,0.21-52.61,23.36-52.67,52.16
		c-0.06,29.09,23.21,52.46,52.68,52.78c11.99,0.13,23.99-0.12,35.97,0.12c3.55,0.07,5.18-1.12,6.6-4.35
		c21.81-49.76,43.81-99.45,65.62-149.21c1.72-3.93,3.61-5.62,8.32-5.61c106.26,0.18,212.53,0.14,318.79,0.14c1.82,0,3.64,0,6.15,0
		c-0.53,1.8-0.8,3.17-1.33,4.43c-6.37,15.16-12.86,30.28-19.11,45.49c-1.27,3.09-2.89,4.17-6.27,4.12
		C1350.45,82.04,1336.48,82.16,1321.7,82.16z"/>
	<path class="st0" d="M529.38,164.12c4.66-10.44,8.81-19.82,13.02-29.17c15.28-33.94,30.63-67.85,45.8-101.84
		c1.63-3.65,3.55-5.2,7.73-5c16.6,0.82,33.52-0.51,49.78,2.21c51.26,8.58,87.78,53.93,86.86,105.87
		c-1.01,57.35-45.59,102.44-103.49,104.65c-1.66,0.06-3.33,0.09-5,0.09c-92.77,0.04-185.54,0.08-278.31,0.12c-1.61,0-3.22,0-5.62,0
		c1.65-3.86,2.95-7.03,4.34-10.17c29.28-65.9,58.6-131.79,87.8-197.74c1.62-3.66,3.52-5.07,7.69-5.05
		c36.64,0.19,73.29,0.11,109.93,0.11c1.76,0,3.52,0,6.19,0c-2.75,6.34-5.11,11.78-7.46,17.22c-5.14,11.9-10.36,23.77-15.35,35.73
		c-1.26,3.02-2.85,4.2-6.28,4.16c-18.49-0.2-36.98,0-55.46-0.17c-3.36-0.03-5.04,0.93-6.25,4.12c-2.35,6.18-5.21,12.16-8.17,18.95
		c21.28,0,41.95,0,63.48,0c-0.92,2.43-1.44,4.11-2.16,5.71c-6.89,15.3-13.91,30.55-20.66,45.91c-1.4,3.19-3.05,4.43-6.64,4.39
		c-17.65-0.2-35.31,0.07-52.96-0.21c-4.24-0.07-6.22,1.4-7.66,5.14c-2.26,5.85-4.97,11.53-7.7,17.75c1.69,0.1,2.78,0.23,3.88,0.23
		c66.13,0.02,132.25,0.09,198.38,0c33.25-0.04,57.16-27.41,52.99-60.34c-3.26-25.8-27.89-46.01-54.19-44.7
		c-3.16,0.16-3.76,2.01-4.69,4.13c-10.55,24.04-21.27,48.01-31.56,72.16c-1.97,4.61-4.34,6-9.21,5.88
		c-14.15-0.35-28.31-0.13-42.47-0.13C534.14,164.12,532.34,164.12,529.38,164.12z"/>
	<path class="st0" d="M1394.98,240.54c0-4.5,0-8.49,0-12.47c0-41.3-0.04-82.59,0.08-123.89c0.01-2.88,0.66-5.96,1.79-8.62
		c8.98-21.09,18.14-42.1,27.24-63.13c1-2.31,1.75-4.23,5.16-4.22c50.63,0.14,101.27,0.1,151.9,0.12c0.64,0,1.28,0.16,2.26,0.29
		c-0.5,1.41-0.86,2.65-1.38,3.83c-7.23,16.23-14.56,32.42-21.66,48.72c-1.33,3.06-2.97,4.1-6.32,4.09
		c-32.31-0.13-64.63-0.08-96.94-0.08c-1.98,0-3.96,0-6.37,0c0,7.87,0,15.39,0,23.48c27.74,0,55.32,0,83.18,0
		c0,18.62,0,36.69,0,55.32c-27.82,0-55.4,0-83.29,0c0,7.97,0,15.37,0,23.26c2.06,0,3.85,0,5.64,0c31.98,0,63.96,0.06,95.94-0.09
		c3.71-0.02,5.5,1.06,6.98,4.55c6.23,14.68,12.84,29.19,19.29,43.77c0.66,1.49,1.21,3.02,2.04,5.08
		C1518.52,240.54,1457.05,240.54,1394.98,240.54z"/>
	<path class="st0" d="M266.16,115.01c10.54,0,20.67-0.15,30.8,0.09c3.36,0.08,5.03-0.96,6.31-4.08c3.71-9.02,7.78-17.9,11.98-27.46
		c-2.31,0-3.92,0-5.53,0c-29.15,0-58.29,0.07-87.44-0.09c-3.71-0.02-5.47,1.08-6.98,4.53c-21.73,49.62-43.68,99.13-65.4,148.76
		c-1.6,3.66-3.44,4.84-7.37,4.79c-18.14-0.22-36.28-0.1-55.19-0.1c0.9-2.32,1.53-4.12,2.3-5.87c29.77-67.5,59.6-134.97,89.24-202.52
		c1.7-3.88,3.77-4.94,7.78-4.93c69.12,0.12,138.23,0.08,207.35,0.08c1.8,0,3.6,0,6.15,0c-1.36,3.23-2.4,5.79-3.52,8.33
		c-20.65,46.82-41.36,93.62-61.85,140.51c-1.69,3.87-3.72,5.1-7.78,4.97c-9.48-0.29-18.99,0.05-28.47-0.22
		c-1.71-0.05-4.28-1.36-4.91-2.78c-9.18-20.46-18.1-41.04-27.07-61.6C266.38,116.99,266.4,116.47,266.16,115.01z"/>
	<path class="st0" d="M1060.12,310.1c18.91,0,37.03,0,55.85,0c0,1.96,0,3.73,0,5.5c0,39.97-0.73,79.96,0.19,119.91
		c1.09,47.55-42.17,85.64-88.74,81.98c-37.36-2.94-67.55-28.43-74.79-63.9c-1.06-5.18-1.54-10.57-1.56-15.86
		c-0.13-41.14-0.08-82.27-0.06-123.41c0-1.29,0.15-2.58,0.25-4.13c18.68,0,37.08,0,56.13,0c0,2.16,0,4.1,0,6.04
		c0,39.97,0.06,79.94-0.04,119.91c-0.03,11.38,4.95,19.63,15.07,24.35c10.25,4.78,20.14,3.39,28.97-3.8
		c6.4-5.21,8.8-12.1,8.78-20.28c-0.12-39.97-0.05-79.94-0.05-119.91C1060.12,314.52,1060.12,312.56,1060.12,310.1z"/>
	<path class="st0" d="M1289.93,302.65c0,17.6,0,34.88,0,52.62c-1.95,0.09-3.72,0.23-5.49,0.23c-21.82,0.02-43.64,0.01-65.46,0.02
		c-1.67,0-3.34-0.05-4.99,0.1c-6.26,0.57-9.65,3.18-10.6,8.06c-0.95,4.88,1.49,11.26,6.3,12.99c5.52,1.98,11.51,3.35,17.35,3.59
		c19.68,0.8,36.92,6.84,50.19,21.9c22.99,26.09,18.99,67.17-8.62,90.63c-11.37,9.66-24.4,14.57-39.36,14.52
		c-25.15-0.07-50.3-0.02-75.45-0.01c-1.47,0-2.94,0-4.8,0c0-17.27,0-34.15,0-51.74c2,0,3.93-0.02,5.86,0
		c22.32,0.2,44.63,0.48,66.95,0.57c9.1,0.04,14.94-6.67,13.53-15.1c-0.88-5.22-3.88-8.2-9.86-8.95c-6.43-0.81-13-0.71-19.36-1.83
		c-40.62-7.19-64.06-47.93-51.34-86.5c7.63-23.16,32.2-40.71,57.89-41.28c25.14-0.56,50.3-0.16,75.45-0.16
		C1288.58,302.28,1289.05,302.47,1289.93,302.65z"/>
	<path class="st0" d="M1583.78,302.36c-5.25,12-10.17,23.22-15.09,34.45c-2,4.57-4.27,9.04-5.94,13.72
		c-1.42,3.98-3.85,4.99-7.87,4.9c-10.81-0.26-21.64-0.24-32.46-0.04c-20.34,0.38-41.48,15.82-48.14,34.92
		c-6.78,19.46-0.57,41.61,15.48,55.21c8.1,6.86,17.52,9.98,28.07,9.97c12.99-0.01,25.99-0.07,38.98,0.09
		c1.7,0.02,3.93,0.84,4.93,2.08c1.51,1.88,2.16,4.45,3.17,6.73c6.16,13.96,12.33,27.92,18.75,42.47c-1.94,0.17-3.32,0.4-4.7,0.4
		c-21.82,0.02-43.64-0.17-65.46,0.04c-53.98,0.51-92.18-45.11-95.99-91.34c-5.35-64.95,50.7-112.21,103.85-113.51
		C1541.82,301.94,1562.31,302.36,1583.78,302.36z"/>
	<path class="st0" d="M760.61,28.62c18.18,0,36.1,0,54.35,0c0,70.63,0,141.08,0,211.83c-18.11,0-36.02,0-54.35,0
		C760.61,169.96,760.61,99.53,760.61,28.62z"/>
	<path class="st0" d="M1331.31,302.5c18.76,0,37.01,0,55.52,0c0,68.13,0,135.99,0,204.22c-18.39,0-36.78,0-55.52,0
		C1331.31,438.82,1331.31,370.85,1331.31,302.5z"/>
	<path class="st0" d="M838.8,287.51c5.97,14.05,11.34,26.72,16.72,39.39c3.7,8.72,7.56,17.37,10.98,26.19
		c0.79,2.03,0.85,4.95-0.01,6.91c-20.84,47.65-41.83,95.23-62.94,142.76c-0.7,1.57-2.88,3.51-4.39,3.53
		c-18.15,0.22-36.3,0.12-54.45,0.07c-0.47,0-0.93-0.26-2.16-0.63C774.5,433.32,806.37,361.05,838.8,287.51z"/>
	<path class="st0" d="M732.97,287.56c3.78,8.84,7.04,16.41,10.27,24c5.85,13.76,11.79,27.49,17.39,41.35
		c0.86,2.14,0.87,5.28-0.05,7.38c-20.75,47.5-41.67,94.93-62.67,142.32c-0.68,1.54-2.53,3.64-3.86,3.66
		c-18.79,0.24-37.59,0.16-57.6,0.16C668.63,433.44,700.48,361.21,732.97,287.56z"/>
	<path class="st0" d="M1121.5,218.3c-19.56,0-38.17,0-57.63,0c0.81-2.01,1.36-3.47,1.98-4.89c6.76-15.52,13.6-31.01,20.25-46.59
		c1.22-2.87,2.77-4.01,5.94-3.95c9.46,0.19,18.93,0.07,29.01,0.07c0-18.95,0-37.48,0-56.37c18.67,0,36.73,0,55.19,0
		c0,45,0,90.01,0,135.42c-18.05,0-36.1,0-54.74,0C1121.5,234.4,1121.5,226.68,1121.5,218.3z"/>
	<path class="st0" d="M234.23,126.52c16.91,38.34,33.63,76.26,50.68,114.92c-9.04,0-17.15,0-25.26,0c-10.49,0-20.98-0.11-31.47,0.07
		c-2.96,0.05-4.45-0.94-5.6-3.64c-5.72-13.45-11.69-26.79-17.4-40.25c-0.69-1.64-0.97-4.02-0.3-5.57
		c9.14-21.2,18.48-42.31,27.8-63.44C232.93,128.04,233.43,127.58,234.23,126.52z"/>
	<path class="st0" d="M935.22,506.45c-17.33,0-33.47-0.46-49.56,0.2c-7.74,0.32-11.85-1.69-14.55-9.33
		c-3.86-10.93-9.28-21.3-13.83-32c-0.78-1.83-1.41-4.41-0.72-6.07c9.1-21.92,18.44-43.74,28.3-66.93
		C901.81,430.75,918.3,468.11,935.22,506.45z"/>
</g>
</svg>
